<?xml version="1.0" encoding="utf-8"?>
<!-- Generator: Adobe Illustrator 19.1.0, SVG Export Plug-In . SVG Version: 6.00 Build 0)  -->
<svg version="1.1" id="レイヤー_1" xmlns="http://www.w3.org/2000/svg" xmlns:xlink="http://www.w3.org/1999/xlink" x="0px"
	 y="0px" viewBox="0 0 32.3 36.2" style="enable-background:new 0 0 32.3 36.2;" xml:space="preserve">
<style type="text/css">
	.st0{fill:#206A36;}
	.st1{fill:#25993A;stroke:#206A36;stroke-width:0.8;stroke-miterlimit:10;}
	.st2{fill:#F7F5AE;}
	.st3{fill:#F5E328;}
	.st4{fill:#D6C31B;}
	.st5{fill:none;stroke:#F1998E;stroke-width:1.1339;stroke-linecap:round;stroke-linejoin:round;stroke-miterlimit:10;}
</style>
<g>
	<circle class="st0" cx="7.1" cy="9.6" r="1.8"/>
	<circle class="st0" cx="3.7" cy="14" r="1.8"/>
	<circle class="st0" cx="2.1" cy="19.4" r="1.8"/>
	<circle class="st0" cx="2.6" cy="24.7" r="1.8"/>
	<circle class="st0" cx="11.7" cy="7.4" r="1.8"/>
	<circle class="st0" cx="17" cy="6.6" r="1.8"/>
	<circle class="st0" cx="21.9" cy="7.8" r="1.8"/>
	<circle class="st0" cx="25.9" cy="10.5" r="1.8"/>
	<circle class="st0" cx="28.6" cy="14.9" r="1.8"/>
	<circle class="st0" cx="30" cy="19.9" r="1.8"/>
	<circle class="st0" cx="25.7" cy="30.6" r="1.8"/>
	<circle class="st0" cx="29.1" cy="25.5" r="1.8"/>
	<circle class="st0" cx="20.7" cy="33.4" r="1.8"/>
	<circle class="st0" cx="15" cy="34.2" r="1.8"/>
	<circle class="st0" cx="10.2" cy="33.3" r="1.8"/>
	<circle class="st0" cx="5.4" cy="30" r="1.8"/>
	<circle class="st1" cx="16" cy="20.5" r="13.7"/>
	<circle class="st2" cx="16" cy="20.5" r="9.4"/>
</g>
<circle cx="12.5" cy="19.6" r="1.1"/>
<circle cx="19.5" cy="19.6" r="1.1"/>
<path class="st3" d="M18,3.3c0.3-1.5,0.3-3-1.6-3.1c-1.5-0.1-1.6,1.9-1.5,3.2c-1.3-0.4-4.1-1-4.1,1.6c0,1.9,1.7,2.2,4.2,1.4
	c0,0-4,1.2-2,3.8c1.1,1.4,3-0.8,3.5-1.5c0.5,0.7,2.4,2.9,3.5,1.5c2-2.5-2-3.6-2-3.6c2.5,0.8,4.2,0.4,4.2-1.5C22.2,2.8,19.7,3,18,3.3
	z"/>
<circle class="st4" cx="16.5" cy="5.7" r="0.8"/>
<path class="st5" d="M10.9,24c0,0,0.9,2.6,5.2,2.6s5.4-2.7,5.4-2.7"/>
</svg>
